<svg width="117" height="26" fill="none" xmlns="http://www.w3.org/2000/svg"><path d="M18.96.216V20.16L4.668.216H.24v25.2h3.6V4.932L18.6 25.416h3.96V.216h-3.6ZM48.977.216v4.788C46.889 2.088 43.649 0 39.941 0c-7.272 0-12.528 5.4-12.528 12.816s5.256 12.816 12.528 12.816c3.708 0 6.948-2.088 9.036-5.004v4.788h3.492V.216h-3.492ZM40.085 22.32c-5.148 0-8.892-3.996-8.892-9.504 0-5.508 3.744-9.504 8.892-9.504s8.892 3.996 8.892 9.504c0 5.508-3.744 9.504-8.892 9.504ZM88.83.216h-5.147l-9.72 20.952L64.207.216H58.95v25.2h3.6V4.896l9.504 20.52h3.6l9.576-20.7v20.7h3.6V.216ZM105.922 25.776c6.264 0 10.98-4.572 10.98-10.656V.216h-3.6V15.12c0 4.104-3.168 7.2-7.38 7.2s-7.38-3.096-7.38-7.2V.216h-3.6V15.12c0 6.084 4.717 10.656 10.98 10.656Z" fill="#F1F5F4"/></svg>